<?xml version="1.0" encoding="UTF-8"?>
<svg id="Layer_1" data-name="Layer 1" xmlns="http://www.w3.org/2000/svg" viewBox="0 0 977 977">
  <defs>
    <style>
      .cls-1 {
        fill: #fff;
      }

      .cls-2 {
        fill: none;
        stroke-linejoin: round;
        stroke-width: 23px;
      }

      .cls-2, .cls-3 {
        stroke: #000;
        stroke-linecap: round;
      }

      .cls-3 {
        stroke-miterlimit: 10;
      }
    </style>
  </defs>
  <circle class="cls-1" cx="488.5" cy="488.5" r="488.5"/>
  <path class="cls-2" d="M199.51,825.3c-91.45-80.41-148.88-198.34-148.88-330.72C50.63,249.75,247.08,49.24,491.91,49.24c170.82,0,309.1,99.64,380.27,225.72"/>
  <path class="cls-2" d="M929.12,489.5c0,65.07-13.22,125.06-35.59,173.87"/>
  <path class="cls-3" d="M349.29,912.1c8.58,2.86,20.02,7.63,43.85,14.3s46.71,8.58,46.71,8.58c0,0,73.4-155.38,81.98-183.03,8.58-27.65,16.21-68.64,18.11-90.56,1.91-21.93,1.91-38.13,1.91-38.13,0,0,20.3,39.24,24.79,57.2,.95,3.81,9.53,46.71,10.49,53.38s2.86,23.83,2.86,23.83c0,0,8.58-46.71,6.67-61.96-1.91-15.25-12.39-70.54-29.55-100.09-17.16-29.55-54.34-75.31-72.45-91.51-18.11-16.21-22.88-20.02-22.88-20.02,0,0,7.63,16.21,8.58,34.32,.95,18.11,.95,61.01,.95,61.01,0,0-11.44-36.22-20.02-49.57s-41.94-60.06-54.34-74.36-20.97-23.83-20.97-23.83l2.86,31.46s-20.97-35.27-27.65-44.8-37.18-44.8-49.57-55.29-34.32-27.65-45.76-34.32-28.6-15.25-28.6-15.25l7.63-19.07,140.13,39.08s58.15-16.21,75.31-18.11c17.16-1.91,34.32-3.81,40.99-2.86s54.34,13.35,78.17,22.88c23.83,9.53,114.39,48.62,114.39,48.62,0,0-40.04,6.67-50.52,7.63s-22.88,.95-27.65,0-6.67-1.91-6.67-1.91c0,0-.95,20.97,5.72,26.69s11.44,11.44,23.83,12.39,163.01-26.69,163.01-26.69l-147.76,74.36s10.49-1.91,21.93,1.91c11.44,3.81,60.06,19.07,68.64,23.83s65.78,31.46,65.78,31.46c0,0-36.59,17.21-50.52,20.97-15.41,3.57-91.51,8.58-91.51,8.58l34.32,12.39s-16.21,3.81-31.46,2.86-31.46-2.86-31.46-2.86c0,0,37.18,18.11,58.15,20.97s53.38,2.86,53.38,2.86c0,0-1.91,9.53-6.67,14.3-4.77,4.77-15.25,14.3-15.25,14.3,0,0,10.49,.95,17.16-1.91s15.25-6.67,15.25-6.67c0,0-40.04,42.9-59.1,100.09-19.07,57.2-11.44,147.76-11.44,147.76,0,0,22.88-68.64,38.13-101.05,15.25-32.41,41.94-66.73,41.94-66.73,0,0-.31,32.99,3.81,54.34,4.18,21.67,4.17,29.03,13.35,44.8,7.34,12.63,12.39,18.11,12.39,18.11,0,0,26.69-26.69,38.13-40.99s32.41-47.66,32.41-47.66c0,0-17.16-13.35-18.11-14.3,0,0-4.77-5.72-5.72-9.53s0-6.67,0-6.67c0,0,7.63,4.77,10.49,5.72,2.86,.95,9.53,2.86,9.53,2.86,0,0-12.39-16.21-16.21-23.83-3.81-7.63-23.83-49.57-21.93-67.68s12.39-25.74,20.97-39.08,98.19-180.17,101.05-187.8c2.86-7.63,3.81-24.03,0-28.7s-7.63-15.15-61.96-7.53-121.07,16.21-121.07,16.21l23.26-62.03c5.01-13.37-6.01-27.26-20.17-25.41l-202.33,26.43s-47.66-18.91-90.08-15.17c-42.42,3.73-88.18,19.94-94.85,19.94s-153.48-44.8-160.15-45.76-46.71,11.44-58.15,49.57c-11.44,38.13-11.44,63.87,4.77,77.22,7.72,6.35,12.41,9.9,15.2,11.87,3.18,2.24,6.17,4.74,8.92,7.49l16.86,16.86s-43.85-31.46-60.06-11.44-10.49,38.13-1.91,74.36c13.11,55.35,56.24,85.79,77.22,98.19s30.11,19.52,40.04,27.65c10.49,8.58,28.6,40.99,34.32,63.87,4.94,19.77,.95,61.96-9.53,84.84-10.49,22.88-31.46,63.87-31.46,63.87-.95,1.91-10.49,20.97-10.49,20.97,0,0,1.91,2.86,7.63,6.67,5.72,3.81,13.35,9.53,13.35,9.53l10.49-22.88s32.41-67.68,38.13-89.61,10.49-44.8,8.58-57.2-23.83-60.06-23.83-60.06l43.85,19.07s-20.97-29.55-29.55-38.13c-8.58-8.58-81.98-42.9-102.95-62.92-20.97-20.02-36.76-41.48-42.9-64.82-4.85-18.43-8.71-39.82-8.77-52.74-.02-3.83,3.99-6.35,7.41-4.62l100.5,50.69-37.18-62.92s-28.6-29.55-33.36-32.41-13.35-8.58-17.16-14.3-3.81-14.25-3.81-23.83c0-4.77,6.67-30.5,8.58-35.27s1.91-3.81,1.91-3.81l22.88,7.63s-2.86,3.81-2.86,4.77,0,4.77,1.91,6.67,6.67,2.86,7.63,2.86,5.72,0,6.67-1.91,1.91-1.91,1.91-1.91l32.41,24.79s-21.93-2.86-26.69-3.81-21.93-3.81-21.93-3.81c0,0,17.3,14.32,31.46,20.02,19.8,7.97,42.9,13.35,42.9,13.35,0,0,43.85,52.43,51.48,63.87,7.63,11.44,47.66,82.94,47.66,82.94l4.77-23.83s33.36,33.36,44.8,69.59,19.07,65.78,21.93,89.61c0,4.77,.95,18.11,.95,18.11,0,0,20.97-19.07,27.65-30.5,6.67-11.44,20.02-40.99,22.88-59.1,.95-4.77,3.81-16.21,3.81-16.21,0,0,1.91,12.39,1.91,18.11s.95,26.69,.95,35.27-8.58,73.4-14.3,91.51-16.21,44.8-18.11,46.71c0,0,1.91-13.35,0-35.27-1.04-12.01-8.58-22.88-8.58-22.88,0,0-24.79,73.4-49.57,112.49-33.71,53.16-65.78,91.51-65.78,91.51Z"/>
  <path class="cls-3" d="M405.53,350.62s28.6,4.77,40.04,5.72,27.65-1.91,40.04,2.86c12.39,4.77,30.5,17.16,40.99,32.41,10.49,15.25,23.83,31.46,27.65,33.36s16.21,12.39,16.21,12.39c0,0-10.49,2.86-17.16,1.91s-16.21-5.72-16.21-5.72c0,0-22.88,2.86-39.08,.95-16.21-1.91-30.5-9.53-30.5-9.53l.95,8.58s-10.49-11.44-15.25-18.11-11.44-19.07-14.3-26.69-4.77-18.11-4.77-18.11c0,0-11.44-4.77-16.21-8.58s-12.39-11.44-12.39-11.44Zm69.59,50.52c5.72,10.49,19.36,15.25,19.36,15.25,7.92,1.91,18.77,0,18.77,0,0,0-1.91-1.91-3.81-2.86s-8.58-10.49-15.52-18.49-12.13-12.01-14.99-12.97-4.77-.95-6.67-.95-6.67-.95-6.67-.95c0,0,3.81,10.49,9.53,20.97Z"/>
</svg>